<svg width="366" height="64" viewBox="0 0 366 64" fill="none" xmlns="http://www.w3.org/2000/svg">
<ellipse cx="298.336" cy="10" rx="10.2521" ry="10" fill="#FF3D00"/>
<path d="M3.44 55V27.56H9.32L15.56 45.36C15.72 45.84 15.88 46.3733 16.04 46.96C16.2267 47.52 16.3867 48.0533 16.52 48.56C16.68 49.0667 16.8 49.5067 16.88 49.88H17.16C17.24 49.48 17.3467 49.0267 17.48 48.52C17.6133 47.9867 17.76 47.44 17.92 46.88C18.08 46.32 18.2267 45.8133 18.36 45.36L24.6 27.56H30.44V55H26.64V38.92C26.64 38.0933 26.6533 37.2 26.68 36.24C26.7067 35.2533 26.7333 34.36 26.76 33.56C26.7867 32.7333 26.8 32.1467 26.8 31.8H26.48C26.4 32.1467 26.2667 32.64 26.08 33.28C25.8933 33.8933 25.6933 34.5467 25.48 35.24C25.2933 35.9067 25.12 36.5067 24.96 37.04L18.52 55H15.24L8.8 37.04C8.64 36.5867 8.46667 36.0667 8.28 35.48C8.12 34.8667 7.94667 34.24 7.76 33.6C7.6 32.96 7.44 32.36 7.28 31.8H7C7.02667 32.3867 7.04 33.12 7.04 34C7.06667 34.8533 7.08 35.72 7.08 36.6C7.10667 37.4533 7.12 38.2267 7.12 38.92V55H3.44ZM45.2672 55.48C43.1339 55.48 41.3339 55.0933 39.8672 54.32C38.4272 53.52 37.3205 52.3067 36.5472 50.68C35.8005 49.0533 35.4272 46.9867 35.4272 44.48C35.4272 41.9467 35.8005 39.88 36.5472 38.28C37.3205 36.6533 38.4272 35.4533 39.8672 34.68C41.3339 33.88 43.1339 33.48 45.2672 33.48C47.4005 33.48 49.1872 33.88 50.6272 34.68C52.0939 35.4533 53.2005 36.6533 53.9472 38.28C54.6939 39.88 55.0672 41.9467 55.0672 44.48C55.0672 46.9867 54.6939 49.0533 53.9472 50.68C53.2005 52.3067 52.0939 53.52 50.6272 54.32C49.1872 55.0933 47.4005 55.48 45.2672 55.48ZM45.2672 52.52C46.6272 52.52 47.7605 52.2533 48.6672 51.72C49.5739 51.1867 50.2539 50.36 50.7072 49.24C51.1872 48.0933 51.4272 46.6533 51.4272 44.92V44.04C51.4272 42.28 51.1872 40.84 50.7072 39.72C50.2539 38.6 49.5739 37.7733 48.6672 37.24C47.7605 36.7067 46.6272 36.44 45.2672 36.44C43.9072 36.44 42.7605 36.7067 41.8272 37.24C40.9205 37.7733 40.2405 38.6 39.7872 39.72C39.3339 40.84 39.1072 42.28 39.1072 44.04V44.92C39.1072 46.6533 39.3339 48.0933 39.7872 49.24C40.2405 50.36 40.9205 51.1867 41.8272 51.72C42.7605 52.2533 43.9072 52.52 45.2672 52.52ZM64.8044 55L57.0044 33.96H60.6844L64.5244 44.48C64.711 44.9867 64.9244 45.6267 65.1644 46.4C65.4044 47.1467 65.6444 47.92 65.8844 48.72C66.151 49.4933 66.3644 50.1867 66.5244 50.8H66.7244C66.911 50.2133 67.1244 49.5333 67.3644 48.76C67.6044 47.96 67.8444 47.1867 68.0844 46.44C68.351 45.6667 68.5777 45.0133 68.7644 44.48L72.5644 33.96H76.1244L68.3244 55H64.8044ZM79.4006 30V26.08H82.9206V30H79.4006ZM79.4006 55V33.96H82.9206V55H79.4006ZM96.785 55.48C94.705 55.48 92.945 55.0933 91.505 54.32C90.0917 53.52 89.0117 52.3067 88.265 50.68C87.545 49.0533 87.185 46.9867 87.185 44.48C87.185 41.9467 87.545 39.88 88.265 38.28C89.0117 36.6533 90.105 35.4533 91.545 34.68C92.985 33.88 94.785 33.48 96.945 33.48C98.9183 33.48 100.572 33.8667 101.905 34.64C103.238 35.3867 104.238 36.52 104.905 38.04C105.598 39.5333 105.945 41.4133 105.945 43.68V45.36H90.825C90.8783 47.04 91.1183 48.4267 91.545 49.52C91.9983 50.5867 92.665 51.3733 93.545 51.88C94.425 52.36 95.5317 52.6 96.865 52.6C97.7717 52.6 98.5583 52.4933 99.225 52.28C99.9183 52.04 100.492 51.7067 100.945 51.28C101.425 50.8533 101.785 50.3467 102.025 49.76C102.265 49.1733 102.398 48.5333 102.425 47.84H105.865C105.838 48.96 105.625 50 105.225 50.96C104.825 51.8933 104.238 52.6933 103.465 53.36C102.692 54.0267 101.745 54.5467 100.625 54.92C99.505 55.2933 98.225 55.48 96.785 55.48ZM90.905 42.72H102.305C102.305 41.5467 102.172 40.56 101.905 39.76C101.638 38.96 101.252 38.3067 100.745 37.8C100.265 37.2933 99.6917 36.9333 99.025 36.72C98.385 36.48 97.6517 36.36 96.825 36.36C95.5983 36.36 94.5583 36.5867 93.705 37.04C92.8517 37.4933 92.1983 38.1867 91.745 39.12C91.2917 40.0533 91.0117 41.2533 90.905 42.72ZM117.659 55.48C116.219 55.48 114.952 55.3333 113.859 55.04C112.766 54.7467 111.859 54.32 111.139 53.76C110.419 53.2 109.872 52.5333 109.499 51.76C109.126 50.9867 108.939 50.1067 108.939 49.12C108.939 48.9867 108.939 48.8667 108.939 48.76C108.939 48.6267 108.952 48.52 108.979 48.44H112.459C112.432 48.5467 112.419 48.64 112.419 48.72C112.419 48.8 112.419 48.88 112.419 48.96C112.446 49.8933 112.686 50.6267 113.139 51.16C113.619 51.6933 114.272 52.0667 115.099 52.28C115.926 52.4933 116.846 52.6 117.859 52.6C118.739 52.6 119.552 52.4933 120.299 52.28C121.046 52.04 121.632 51.6933 122.059 51.24C122.512 50.76 122.739 50.16 122.739 49.44C122.739 48.56 122.446 47.8933 121.859 47.44C121.299 46.96 120.552 46.5867 119.619 46.32C118.686 46.0533 117.712 45.7733 116.699 45.48C115.846 45.24 114.992 44.9733 114.139 44.68C113.286 44.3867 112.512 44.0267 111.819 43.6C111.152 43.1733 110.606 42.6267 110.179 41.96C109.779 41.2667 109.579 40.4 109.579 39.36C109.579 38.4267 109.766 37.6 110.139 36.88C110.539 36.16 111.099 35.5467 111.819 35.04C112.539 34.5333 113.406 34.16 114.419 33.92C115.459 33.6533 116.606 33.52 117.859 33.52C119.192 33.52 120.352 33.6667 121.339 33.96C122.352 34.2533 123.192 34.6667 123.859 35.2C124.526 35.7333 125.019 36.3467 125.339 37.04C125.659 37.7067 125.819 38.4267 125.819 39.2C125.819 39.36 125.819 39.52 125.819 39.68C125.819 39.8133 125.806 39.92 125.779 40H122.339V39.56C122.339 39.0267 122.192 38.52 121.899 38.04C121.632 37.5333 121.152 37.1333 120.459 36.84C119.792 36.52 118.859 36.36 117.659 36.36C116.886 36.36 116.219 36.4267 115.659 36.56C115.099 36.6667 114.632 36.8533 114.259 37.12C113.886 37.36 113.606 37.6533 113.419 38C113.232 38.32 113.139 38.6933 113.139 39.12C113.139 39.8133 113.366 40.3467 113.819 40.72C114.272 41.0933 114.872 41.4 115.619 41.64C116.392 41.88 117.219 42.1467 118.099 42.44C119.032 42.7067 119.979 42.9867 120.939 43.28C121.926 43.5467 122.819 43.8933 123.619 44.32C124.446 44.7467 125.099 45.3333 125.579 46.08C126.086 46.8 126.339 47.76 126.339 48.96C126.339 50.08 126.126 51.0533 125.699 51.88C125.272 52.7067 124.659 53.3867 123.859 53.92C123.086 54.4533 122.166 54.84 121.099 55.08C120.059 55.3467 118.912 55.48 117.659 55.48ZM152.049 55.48C149.196 55.48 146.742 54.96 144.689 53.92C142.662 52.88 141.089 51.3067 139.969 49.2C138.876 47.0933 138.329 44.4533 138.329 41.28C138.329 38.08 138.876 35.44 139.969 33.36C141.089 31.2533 142.662 29.68 144.689 28.64C146.742 27.6 149.196 27.08 152.049 27.08C154.902 27.08 157.342 27.6 159.369 28.64C161.422 29.68 162.996 31.2533 164.089 33.36C165.209 35.44 165.769 38.08 165.769 41.28C165.769 44.4533 165.209 47.0933 164.089 49.2C162.996 51.3067 161.422 52.88 159.369 53.92C157.342 54.96 154.902 55.48 152.049 55.48ZM152.049 52.2C153.542 52.2 154.889 52 156.089 51.6C157.316 51.2 158.342 50.5733 159.169 49.72C160.022 48.84 160.676 47.7467 161.129 46.44C161.582 45.1067 161.809 43.5333 161.809 41.72V40.88C161.809 39.04 161.582 37.4667 161.129 36.16C160.676 34.8267 160.022 33.7333 159.169 32.88C158.342 32 157.316 31.36 156.089 30.96C154.889 30.56 153.542 30.36 152.049 30.36C150.529 30.36 149.169 30.56 147.969 30.96C146.769 31.36 145.742 32 144.889 32.88C144.036 33.7333 143.382 34.8267 142.929 36.16C142.502 37.4667 142.289 39.04 142.289 40.88V41.72C142.289 43.5333 142.502 45.1067 142.929 46.44C143.382 47.7467 144.036 48.84 144.889 49.72C145.742 50.5733 146.769 51.2 147.969 51.6C149.169 52 150.529 52.2 152.049 52.2ZM170.573 55V33.96H173.413L173.733 37.12H174.013C174.573 36.2667 175.199 35.5733 175.893 35.04C176.613 34.5067 177.399 34.12 178.253 33.88C179.133 33.6133 180.066 33.48 181.053 33.48C182.386 33.48 183.546 33.7067 184.533 34.16C185.546 34.6133 186.333 35.3467 186.893 36.36C187.479 37.3733 187.773 38.7467 187.773 40.48V55H184.253V40.96C184.253 40.08 184.133 39.36 183.893 38.8C183.679 38.24 183.373 37.8 182.973 37.48C182.599 37.16 182.133 36.9333 181.573 36.8C181.039 36.6667 180.439 36.6 179.773 36.6C178.786 36.6 177.853 36.84 176.973 37.32C176.093 37.8 175.386 38.4933 174.853 39.4C174.346 40.3067 174.093 41.3867 174.093 42.64V55H170.573ZM208.871 55V30.88H199.471V27.56H222.151V30.88H212.671V55H208.871ZM231.166 55.48C229.032 55.48 227.232 55.0933 225.766 54.32C224.326 53.52 223.219 52.3067 222.446 50.68C221.699 49.0533 221.326 46.9867 221.326 44.48C221.326 41.9467 221.699 39.88 222.446 38.28C223.219 36.6533 224.326 35.4533 225.766 34.68C227.232 33.88 229.032 33.48 231.166 33.48C233.299 33.48 235.086 33.88 236.526 34.68C237.992 35.4533 239.099 36.6533 239.846 38.28C240.592 39.88 240.966 41.9467 240.966 44.48C240.966 46.9867 240.592 49.0533 239.846 50.68C239.099 52.3067 237.992 53.52 236.526 54.32C235.086 55.0933 233.299 55.48 231.166 55.48ZM231.166 52.52C232.526 52.52 233.659 52.2533 234.566 51.72C235.472 51.1867 236.152 50.36 236.606 49.24C237.086 48.0933 237.326 46.6533 237.326 44.92V44.04C237.326 42.28 237.086 40.84 236.606 39.72C236.152 38.6 235.472 37.7733 234.566 37.24C233.659 36.7067 232.526 36.44 231.166 36.44C229.806 36.44 228.659 36.7067 227.726 37.24C226.819 37.7733 226.139 38.6 225.686 39.72C225.232 40.84 225.006 42.28 225.006 44.04V44.92C225.006 46.6533 225.232 48.0933 225.686 49.24C226.139 50.36 226.819 51.1867 227.726 51.72C228.659 52.2533 229.806 52.52 231.166 52.52ZM245.338 61.92V33.96H248.138L248.498 36.96H248.778C249.498 35.7867 250.418 34.92 251.538 34.36C252.658 33.7733 253.925 33.48 255.338 33.48C257.098 33.48 258.591 33.8667 259.818 34.64C261.045 35.4133 261.991 36.6267 262.658 38.28C263.325 39.9067 263.658 42.0267 263.658 44.64C263.658 47.0933 263.311 49.1333 262.618 50.76C261.951 52.36 261.005 53.5467 259.778 54.32C258.551 55.0933 257.125 55.48 255.498 55.48C254.591 55.48 253.738 55.3733 252.938 55.16C252.138 54.9467 251.418 54.6133 250.778 54.16C250.138 53.68 249.578 53.08 249.098 52.36H248.858V61.92H245.338ZM254.378 52.4C255.685 52.4 256.751 52.1467 257.578 51.64C258.405 51.1067 259.018 50.2933 259.418 49.2C259.818 48.08 260.018 46.6533 260.018 44.92V44.08C260.018 42.24 259.805 40.7733 259.378 39.68C258.951 38.56 258.325 37.76 257.498 37.28C256.698 36.8 255.698 36.56 254.498 36.56C253.191 36.56 252.111 36.8533 251.258 37.44C250.431 38 249.818 38.8533 249.418 40C249.045 41.1467 248.858 42.5467 248.858 44.2V44.8C248.858 46.2667 248.991 47.4933 249.258 48.48C249.551 49.44 249.951 50.2133 250.458 50.8C250.991 51.3867 251.591 51.8 252.258 52.04C252.925 52.28 253.631 52.4 254.378 52.4Z" fill="white"/>
</svg>
